<svg width="24" height="24" viewBox="0 0 24 24" fill="none" xmlns="http://www.w3.org/2000/svg">
<path d="M12 1.00003C9.38283 1.0045 6.69723 1.55211 4.5 3.00001V5.00001C6.77307 3.67441 9.37181 2.99421 12 3.00001C14.6184 3.00578 17.2301 3.68998 19.5 5V3C17.3227 1.5304 14.6093 0.995573 12 1.00003Z" fill="#333333"/>
<path fill-rule="evenodd" clip-rule="evenodd" d="M20 12C20 7.39171 16.4183 4 12 4C7.58172 4 4 7.56023 4 12C4 16.6083 7.58172 20 12 20C16.4183 20 20 16.4398 20 12ZM7.69218 16.3378C6.63778 15.258 6 13.8075 6 12C6 10.2025 6.63579 8.74972 7.68241 7.66524C8.65199 6.66058 10.1928 5.99909 12 6C13.8032 6.00091 15.2535 6.58256 16.3078 7.66223C17.3622 8.742 18 10.1926 18 12C18 13.7975 17.3642 15.2503 16.3176 16.3348C15.348 17.3394 13.8072 18.0009 12 18C10.1968 17.9991 8.74649 17.4174 7.69218 16.3378Z" fill="#333333"/>
<path d="M19.5 21C17.3028 22.4479 14.6172 22.9955 12 23C9.39073 23.0044 6.67725 22.4696 4.5 21L4.5 19C6.76992 20.31 9.38158 20.9942 12 21C14.6282 21.0058 17.2269 20.3256 19.5 19V21Z" fill="#333333"/>
</svg>
