<svg width="24" height="24" viewBox="0 0 24 24" fill="none" xmlns="http://www.w3.org/2000/svg">
<path d="M19.4241 3.06466C15.2472 0.24524 8.82935 0.245612 4.55179 3.06435L4.5293 3.07917V4.92766L4.60449 4.88382C9.28094 2.15663 14.6453 2.15649 19.3712 4.88393L19.4461 4.92721V3.07952L19.4241 3.06466Z" fill="#303736"/>
<path d="M4.60443 19.114L4.5293 19.0703V20.9187L4.55182 20.9335C8.84089 23.7551 15.2588 23.7555 19.4242 20.9331L19.4461 20.9183V19.0705L19.3711 19.1139C14.6569 21.8413 9.29542 21.8413 4.60443 19.114Z" fill="#303736"/>
<path fill-rule="evenodd" clip-rule="evenodd" d="M12.0238 4.09766C7.30545 4.09766 3.94922 7.37595 3.94922 11.9273C3.94922 16.5356 7.30518 19.817 12.0238 19.817C14.3817 19.817 16.3885 19.0005 17.8061 17.6044C19.2238 16.2082 20.0492 14.2351 20.0492 11.9273C20.0492 9.64225 19.2266 7.68413 17.8104 6.29726C16.3942 4.91045 14.3874 4.09766 12.0238 4.09766ZM6.02498 11.9187C6.02498 10.1343 6.63766 8.62039 7.69199 7.55274C8.74626 6.48514 10.2452 5.86063 12.0238 5.86063C13.8025 5.86063 15.289 6.47876 16.3309 7.54292C17.3728 8.60718 17.9734 10.1211 17.9734 11.9187C17.9734 13.7161 17.3642 15.2503 16.3176 16.3348C15.281 17.4088 13.8127 18.0447 12.0738 18.0567V18.0483H12.0238C10.2454 18.0483 8.74649 17.4174 7.69218 16.3378C6.63778 15.258 6.02498 13.7261 6.02498 11.9187Z" fill="#303736"/>
<path d="M12.7852 12.6846H9.14746V11.918H12.7852C13.14 11.918 13.4313 11.861 13.6592 11.7471C13.887 11.6331 14.0547 11.472 14.1621 11.2637C14.2728 11.0553 14.3281 10.8096 14.3281 10.5264C14.3281 10.2952 14.276 10.0739 14.1719 9.8623C14.071 9.65072 13.9066 9.47656 13.6787 9.33984C13.4541 9.20312 13.1562 9.13477 12.7852 9.13477H11.0957V15.4727H10.1582V8.36328H12.7852C13.3223 8.36328 13.7747 8.45605 14.1426 8.6416C14.5104 8.82389 14.7887 9.0778 14.9775 9.40332C15.1696 9.72559 15.2656 10.0967 15.2656 10.5166C15.2656 10.9723 15.1696 11.363 14.9775 11.6885C14.7887 12.0107 14.5104 12.2581 14.1426 12.4307C13.7747 12.5999 13.3223 12.6846 12.7852 12.6846ZM12.7266 13.3535V14.125H9.14746V13.3535H12.7266Z" fill="#303736"/>
</svg>
