<svg width="24" height="24" viewBox="0 0 24 24" fill="none" xmlns="http://www.w3.org/2000/svg">
<path d="M4.5 21C5.03043 21 5.53914 20.7893 5.91421 20.4142C6.28929 20.0391 6.5 19.5304 6.5 19C6.5 18.4696 6.28929 17.9609 5.91421 17.5858C5.53914 17.2107 5.03043 17 4.5 17C3.96957 17 3.46086 17.2107 3.08579 17.5858C2.71071 17.9609 2.5 18.4696 2.5 19C2.5 19.5304 2.71071 20.0391 3.08579 20.4142C3.46086 20.7893 3.96957 21 4.5 21ZM4.5 7C5.03043 7 5.53914 6.78929 5.91421 6.41421C6.28929 6.03914 6.5 5.53043 6.5 5C6.5 4.46957 6.28929 3.96086 5.91421 3.58579C5.53914 3.21071 5.03043 3 4.5 3C3.96957 3 3.46086 3.21071 3.08579 3.58579C2.71071 3.96086 2.5 4.46957 2.5 5C2.5 5.53043 2.71071 6.03914 3.08579 6.41421C3.46086 6.78929 3.96957 7 4.5 7ZM4.5 14C5.03043 14 5.53914 13.7893 5.91421 13.4142C6.28929 13.0391 6.5 12.5304 6.5 12C6.5 11.4696 6.28929 10.9609 5.91421 10.5858C5.53914 10.2107 5.03043 10 4.5 10C3.96957 10 3.46086 10.2107 3.08579 10.5858C2.71071 10.9609 2.5 11.4696 2.5 12C2.5 12.5304 2.71071 13.0391 3.08579 13.4142C3.46086 13.7893 3.96957 14 4.5 14Z" stroke="#C8CBCC" stroke-width="2" stroke-linejoin="round"/>
<path d="M10.5 12H21.5M10.5 19H21.5M10.5 5H21.5" stroke="#C8CBCC" stroke-width="2" stroke-linecap="round" stroke-linejoin="round"/>
</svg>
