<svg width="328" height="531" viewBox="0 0 328 531" fill="none" xmlns="http://www.w3.org/2000/svg">
<path d="M41.9286 431.108C52.5985 427.722 56.29 440.182 60.1833 447.33C64.0765 454.479 69.286 467.934 69.1537 471.712C69.0215 475.489 68.5422 479.639 64.5672 479.103C58.0352 478.222 55.719 471.342 53.4696 464.228C51.6701 458.537 49.1855 462.243 49.1855 462.243C49.1855 462.243 45.35 467.501 47.1897 472.502C49.0294 477.502 57.5648 488.294 59.8149 495.41C62.065 502.525 60.4048 513.411 54.1866 516.283C50.1232 518.16 40.1642 507.254 37.973 504.897C35.7818 502.541 27.0903 490.923 22.365 475.98C17.6397 461.037 24.7317 445.944 27.3074 442.111C29.883 438.279 31.2587 434.495 41.9286 431.108Z" fill="#FFF4DE"/>
<path d="M36.8483 473.828C40.2374 483.518 48.8885 503.868 56.3808 507.755M27.0449 478.408C38.3182 501.953 47.6188 509.901 51.3044 511.814M60.1833 447.33C56.29 440.182 52.5985 427.722 41.9286 431.108C31.2587 434.495 29.883 438.279 27.3074 442.111C24.7317 445.944 17.6397 461.037 22.365 475.98C27.0903 490.923 35.7818 502.541 37.973 504.897C40.1642 507.254 50.1232 518.16 54.1866 516.283C60.4048 513.411 62.065 502.525 59.8149 495.41C57.5648 488.294 49.0294 477.502 47.1897 472.502C45.35 467.501 49.1855 462.243 49.1855 462.243C49.1855 462.243 51.6701 458.537 53.4696 464.228C55.719 471.342 58.0352 478.222 64.5672 479.103C68.5422 479.639 69.0215 475.489 69.1537 471.712C69.286 467.934 64.0765 454.479 60.1833 447.33Z" stroke="black" stroke-width="2" stroke-linecap="round"/>
<path d="M280.853 431.108C270.183 427.722 266.491 440.182 262.598 447.33C258.705 454.479 253.495 467.934 253.628 471.712C253.76 475.489 254.239 479.639 258.214 479.103C264.746 478.222 267.062 471.342 269.312 464.228C271.111 458.537 273.596 462.243 273.596 462.243C273.596 462.243 277.431 467.501 275.592 472.502C273.752 477.502 265.216 488.294 262.966 495.41C260.716 502.525 262.376 513.411 268.595 516.283C272.658 518.16 282.617 507.254 284.808 504.897C286.999 502.541 295.691 490.923 300.416 475.98C305.142 461.037 298.05 445.944 295.474 442.111C292.898 438.279 291.523 434.495 280.853 431.108Z" fill="#FFF4DE"/>
<path d="M285.933 473.828C282.544 483.518 273.893 503.868 266.4 507.755M295.736 478.408C284.463 501.953 275.162 509.901 271.477 511.814M262.598 447.33C266.491 440.182 270.183 427.722 280.853 431.108C291.523 434.495 292.898 438.279 295.474 442.111C298.05 445.944 305.142 461.037 300.416 475.98C295.691 490.923 286.999 502.541 284.808 504.897C282.617 507.254 272.658 518.16 268.595 516.283C262.376 513.411 260.716 502.525 262.966 495.41C265.216 488.294 273.752 477.502 275.592 472.502C277.431 467.501 273.596 462.243 273.596 462.243C273.596 462.243 271.111 458.537 269.312 464.228C267.062 471.342 264.746 478.222 258.214 479.103C254.239 479.639 253.76 475.489 253.628 471.712C253.495 467.934 258.705 454.479 262.598 447.33Z" stroke="black" stroke-width="2" stroke-linecap="round"/>
<path d="M85.7591 223.249C79.1003 210.982 84.9413 191.657 85.7591 184.531L106.037 172.615C126.365 152.17 180.409 124.669 233.962 178.222C238.518 184.18 244.175 187.15 244.175 199.417C244.175 227.735 220.577 238.67 205.623 237.969C178.986 237.969 164.032 218.109 162.864 212.034C162.864 227.805 133.774 240.072 118.704 240.072C106.647 240.072 92.4179 235.516 85.7591 223.249Z" fill="#A1C6FF"/>
<path d="M223.104 130.791C223.104 148.405 215.955 166.468 204.367 180.121C192.782 193.772 176.874 202.891 159.416 202.891C141.957 202.891 126.049 193.772 114.464 180.121C102.876 166.468 95.7266 148.405 95.7266 130.791C95.7266 95.6161 124.241 67.1016 159.416 67.1016C194.59 67.1016 223.104 95.6161 223.104 130.791Z" fill="#FFF4DE" stroke="black" stroke-width="3"/>
<path d="M149.953 187.227C151.938 184.899 155.906 182.026 160.769 181.964C164.204 181.92 168.087 183.28 172.033 187.227" stroke="black" stroke-width="3"/>
<circle cx="181.84" cy="157.426" r="17.4258" stroke="black" stroke-width="3"/>
<circle cx="136.285" cy="157.426" r="17.4258" stroke="black" stroke-width="3"/>
<path d="M140.428 157.069C140.662 155.199 140.288 151.461 136.923 151.461C133.559 151.461 132.251 155.199 132.018 157.069" stroke="black" stroke-width="3"/>
<path d="M177.697 157.428C177.463 155.559 177.837 151.82 181.202 151.82C184.566 151.82 185.874 155.559 186.107 157.428" stroke="black" stroke-width="3"/>
<path d="M111.553 167.924C126.267 153.211 115.364 141.911 108.073 138.1C118.823 127.351 110.841 112.423 105.507 106.302H108.073C120.799 106.302 122.562 82.7752 129.922 85.579C137.282 88.3828 148.848 107.659 159.713 99.5981C166.722 117.473 183.195 99.5981 186.699 99.5981C190.204 99.5981 187.05 112.916 200.719 113.617C214.359 114.317 208.802 130.724 203.47 146.468L203.437 146.565C198.632 156.998 198.992 188.62 216.49 188.62C233.988 188.62 235.824 173.718 236.818 167.924C239.961 174.883 252.354 185.349 263.104 174.6C273.853 163.852 269.723 149.206 268.558 146.565C299.18 115.945 283.969 99.3433 272.535 94.8697C290.431 76.9751 270.712 63.5542 258.616 59.0806C258.616 35.9188 218.616 25.973 198.616 23.8953C198.616 8.00117 177.153 9.54053 167.073 10.9281C147.5 -5.82919 131.254 4.65217 124.314 12.8528C89.7155 12.8528 84.7293 31.1841 85.0607 42.1197C54.8365 42.1197 48.0887 65.1959 52.8938 81.4336C16.3066 81.4336 34.6665 119.211 48.4199 138.1C31.7171 154.801 44.5184 176.015 55.6205 182.311C73.8454 189.671 86.2002 175.711 92.1655 167.924C98.5285 174.286 107.742 170.575 111.553 167.924Z" fill="#D9D9D9" stroke="black" stroke-width="3"/>
<line x1="154.102" y1="156.273" x2="163.241" y2="156.273" stroke="black" stroke-width="3"/>
<path d="M86.5145 184.244C47.5619 211.747 24.1787 254.671 17.1199 273.432C10.061 292.192 2 348.408 2 371.4C2 386.587 12.4651 438.341 22.6782 443.598M86.5145 184.244C85.6967 191.371 79.8557 210.696 86.5145 222.963C93.1733 235.229 107.403 239.786 119.459 239.786C134.53 239.786 163.619 227.519 163.619 211.747C164.788 217.822 179.741 237.683 206.378 237.683C221.332 238.384 244.931 227.449 244.931 199.13C244.931 186.863 239.273 183.894 234.717 177.936C254.811 194.992 286.287 217.355 299.605 239.786C312.924 262.216 319.281 276.751 324.84 312.685C330.398 348.619 317.531 428.777 302.71 443.598M86.5145 184.244L106.793 172.328" stroke="black" stroke-width="3"/>
<path d="M84.0103 350.375C80.5055 370.235 68.2387 420.471 57.0234 431.686" stroke="black" stroke-width="3"/>
<path d="M243.831 355.984C247.335 375.845 253.644 420.472 264.859 431.688" stroke="black" stroke-width="3"/>
<path d="M60.1797 511.594C113.569 525.029 228.409 543.838 260.653 511.594" stroke="black" stroke-width="3"/>
</svg>
