<svg width="215" height="486" viewBox="0 0 215 486" fill="none" xmlns="http://www.w3.org/2000/svg">
<path d="M58.7016 141.322C56.1158 136.557 56.5242 130.101 57.3377 124.8C58.0997 119.834 61.2487 115.444 65.5801 112.898L69.6849 110.485C70.8682 109.79 71.9423 108.939 72.9542 108.011C86.7503 95.3662 119.518 80.4788 151.999 112.969C154.867 116.721 158.429 118.591 158.429 126.315C158.429 144.147 143.573 151.033 134.159 150.591C130.31 150.591 85.3045 151.443 81.4738 151.812C80.7616 151.88 80.0813 151.916 79.4411 151.916C71.8513 151.916 62.8935 149.047 58.7016 141.322Z" fill="#A1C6FF"/>
<path d="M134.519 215.808C136.475 217.762 150.637 231.314 150.091 235.523C149.545 239.733 142.712 249.686 140.82 251.431C138.928 253.175 108.808 249.707 103.592 238.567C98.3753 227.427 100.596 221.739 106.83 217.362C113.065 212.985 126.739 218.812 128.52 219.795C130.301 220.778 125.958 218.008 127.324 214.263C128.689 210.519 132.564 213.853 134.519 215.808Z" fill="#FFF4DE" stroke="black" stroke-width="3"/>
<path d="M144.608 83.0963C144.608 94.0453 140.161 105.294 132.944 113.801C125.729 122.304 115.859 127.942 105.069 127.942C94.2803 127.942 84.4102 122.304 77.1948 113.801C69.9775 105.294 65.5312 94.0453 65.5312 83.0963C65.5312 61.2534 83.2335 43.5469 105.069 43.5469C126.905 43.5469 144.608 61.2534 144.608 83.0963Z" fill="#FFF4DE" stroke="black" stroke-width="3"/>
<path d="M99.1172 115.32C101.25 117.822 107.016 121.323 113.017 115.32" stroke="black" stroke-width="3"/>
<path d="M129.602 99.8707C129.602 105.625 124.939 110.288 119.188 110.288C113.436 110.288 108.773 105.625 108.773 99.8707C108.773 94.1168 113.436 89.4531 119.188 89.4531C124.939 89.4531 129.602 94.1168 129.602 99.8707Z" stroke="black" stroke-width="3"/>
<path d="M100.915 99.8707C100.915 105.625 96.2515 110.288 90.5003 110.288C84.749 110.288 80.0859 105.625 80.0859 99.8707C80.0859 94.1168 84.749 89.4531 90.5003 89.4531C96.2515 89.4531 100.915 94.1168 100.915 99.8707Z" stroke="black" stroke-width="3"/>
<path d="M93.1209 99.6483C93.268 98.4713 93.0327 96.1172 90.9146 96.1172C88.7965 96.1172 87.9733 98.4713 87.8265 99.6483" stroke="black" stroke-width="3"/>
<path d="M116.574 99.8749C116.427 98.6978 116.663 96.3438 118.781 96.3438C120.899 96.3438 121.722 98.6978 121.869 99.8749" stroke="black" stroke-width="3"/>
<path d="M75.6034 105.787C76.9958 104.281 77.9642 102.835 78.5906 101.46C82.0071 93.9607 77.7103 78.721 73.7548 71.4916C72.0605 68.3951 66.5958 67.6791 70.1255 67.6791H72.7441C80.7554 67.6791 81.8652 52.8641 86.4986 54.6296C86.9848 54.8149 87.5001 55.1144 88.041 55.4962C96.5183 61.4799 111.865 63.4575 122.242 63.4575C124.448 63.4575 122.462 71.8439 131.067 72.2853C139.654 72.7258 136.156 83.0574 132.799 92.9717L132.778 93.0325C129.753 99.6024 129.98 119.514 140.996 119.514C147.097 119.514 166.026 115.001 170.34 110.686C172.492 108.534 173.697 106.133 174.316 103.806C176.012 97.4246 177.142 90.1475 180.805 84.6538C182.548 82.0386 183.693 79.6391 184.364 77.4504C187.247 68.0319 182.987 48.1908 175.201 42.1572C170.683 38.6556 167.819 33.6254 164.092 29.2908C159.693 24.1744 151.69 20.6953 143.889 18.514C135.996 16.3068 128.15 8.16235 120.002 7.27524C119.027 7.16914 118.035 7.11903 117.054 7.10951C112.479 7.0651 108.042 5.59837 103.89 3.67679C97.9022 0.905437 92.6509 1.93098 88.6659 4.13915C84.5488 6.42052 80.2221 8.63997 75.5698 9.35484C71.0482 10.0496 67.6665 11.3921 65.1521 13.0938C57.6766 18.1528 46.9879 27.0371 41.1984 33.9623C34.3405 42.1656 23.5126 53.8134 24.5965 64.4506C24.9644 68.0612 26.3513 72.0827 28.1895 75.9748C31.5527 83.0957 29.7424 92.1073 30.1551 99.9717C30.5158 106.847 35.3311 113.05 39.7238 115.542C45.2928 117.791 49.9912 116.878 53.7814 114.781C59.4781 111.63 68.7893 110.217 74.3625 106.852C74.9086 106.523 75.1704 106.256 75.6034 105.787Z" fill="#D9D9D9" stroke="black" stroke-width="3"/>
<line x1="101.727" y1="98.5938" x2="107.48" y2="98.5938" stroke="black" stroke-width="3"/>
<path d="M98.1829 215.649C95.756 216.973 78.349 225.982 77.6869 230.175C77.0247 234.368 80.7755 245.844 82.0993 248.051C83.4231 250.259 113.3 255.423 121.443 246.206C129.587 236.988 129.059 230.904 124.311 224.947C119.563 218.99 104.801 220.725 102.815 221.166C100.829 221.607 105.777 220.173 105.522 216.196C105.267 212.218 100.61 214.326 98.1829 215.649Z" fill="#FFF4DE" stroke="black" stroke-width="3"/>
<path d="M120.375 229.086L104.459 230.054M122.339 234.886L103.815 236.013M119.923 240.868L105.361 241.972" stroke="black" stroke-width="3"/>
<path d="M63.3359 429.711L69.955 445.16M99.9614 429.711L98.417 446.263M121.142 429.711L123.349 446.263M152.693 429.711L148.501 445.16" stroke="black" stroke-width="2"/>
<path d="M157.972 447.314C145.778 434.056 126.657 442.33 119.901 449.865C119.553 450.252 119.251 450.668 119.001 451.125C118.013 452.929 115.63 458.154 117.31 464.06C119.396 471.387 127.528 470.131 135.035 477.668C141.828 484.488 154.829 484.68 160.587 483.361C161.641 483.12 162.688 482.835 163.734 482.557C169.723 480.968 176.739 475.929 176.739 468.247C176.739 459.873 170.486 460.92 157.972 447.314Z" fill="#A1C6FF" stroke="black" stroke-width="3"/>
<path d="M64.012 447.314C76.2067 434.056 95.3272 442.33 102.084 449.865C102.431 450.252 102.733 450.668 102.983 451.125C103.971 452.929 106.355 458.154 104.674 464.06C102.589 471.387 94.4563 470.131 86.9495 477.668C80.1561 484.488 67.1558 484.68 61.3978 483.361C60.3431 483.12 59.2966 482.835 58.2507 482.557C52.2616 480.968 45.245 475.929 45.245 468.247C45.245 459.873 51.498 460.92 64.012 447.314Z" fill="#A1C6FF" stroke="black" stroke-width="3"/>
<path d="M59.1758 116.761C34.6541 134.08 19.4614 164.536 15.49 172.923C11.5185 181.309 4.23757 194.109 2.69312 209.117C1.14868 224.124 2.25167 225.228 5.34075 232.51C8.42983 239.793 25.639 252.815 36.671 255.463C47.703 258.111 78.6929 254.123 82.7526 250.062M59.1758 116.761C58.661 121.249 54.9839 133.418 59.1758 141.142C63.3677 148.867 72.3255 151.736 79.9154 151.736C80.5555 151.736 81.2358 151.701 81.948 151.632C85.7787 151.263 130.785 150.412 134.633 150.412V150.412C144.047 150.853 158.903 143.967 158.903 126.135V126.135C158.903 124.165 162.787 121.233 164.316 122.475C175.279 131.381 187.274 141.547 193.322 151.736C201.707 165.86 206.97 190.033 209.208 197.641C211.446 205.248 216.016 214.076 210.059 230.745C204.102 247.413 192.157 256.021 180.494 260.655C168.832 265.29 141.883 255.579 141.252 252.373M59.1758 116.761L71.9415 109.258M33.1408 209.117C56.9695 209.999 69.1042 208.13 79.9154 225.785M187.775 209.117C178.655 212.059 150.267 218.209 150.267 229.862M28.6947 252.373C20.7518 303.722 7.3706 416.394 15.49 424.516C23.6094 432.638 200.824 433.344 207.884 419.661C214.944 405.978 204.543 278.631 193.953 253.134" stroke="black" stroke-width="3"/>
</svg>
