<svg width="215" height="486" viewBox="0 0 215 486" fill="none" xmlns="http://www.w3.org/2000/svg">
<path d="M124.506 216.083C126.933 217.407 144.34 226.416 145.002 230.609C145.665 234.802 141.914 246.278 140.59 248.486C139.266 250.693 109.39 255.857 101.246 246.64C93.1022 237.422 93.6304 231.339 98.3783 225.381C103.126 219.424 117.888 221.159 119.874 221.6C121.86 222.042 116.913 220.608 117.167 216.63C117.422 212.653 122.079 214.76 124.506 216.083Z" fill="#FFF4DE"/>
<path d="M111.484 232.172L127.4 233.14M109.52 237.971L128.044 239.098M111.936 243.954L126.498 245.058M145.002 230.609C144.34 226.416 126.933 217.407 124.506 216.083C122.079 214.76 117.422 212.653 117.167 216.63C116.913 220.608 121.86 222.042 119.874 221.6C117.888 221.159 103.126 219.424 98.3783 225.381C93.6304 231.339 93.1022 237.422 101.246 246.64C109.39 255.857 139.266 250.693 140.59 248.486C141.914 246.278 145.665 234.802 145.002 230.609Z" stroke="black" stroke-width="3"/>
<path d="M58.7016 141.322C56.1158 136.557 56.5242 130.101 57.3377 124.8C58.0997 119.834 61.2487 115.444 65.5801 112.898L69.6849 110.485C70.8682 109.79 71.9423 108.939 72.9542 108.011C86.7503 95.3662 119.518 80.4788 151.999 112.969C154.867 116.721 158.429 118.591 158.429 126.315C158.429 144.147 143.573 151.033 134.159 150.591C130.31 150.591 85.3045 151.443 81.4738 151.812C80.7616 151.88 80.0813 151.916 79.4411 151.916C71.8513 151.916 62.8935 149.047 58.7016 141.322Z" fill="#A1C6FF"/>
<path d="M144.608 83.0963C144.608 94.0453 140.161 105.294 132.944 113.801C125.729 122.304 115.859 127.942 105.069 127.942C94.2803 127.942 84.4102 122.304 77.1948 113.801C69.9775 105.294 65.5312 94.0453 65.5312 83.0963C65.5312 61.2534 83.2335 43.5469 105.069 43.5469C126.905 43.5469 144.608 61.2534 144.608 83.0963Z" fill="#FFF4DE" stroke="black" stroke-width="3"/>
<path d="M99.1094 115.32C101.242 117.821 107.008 121.322 113.009 115.32" stroke="black" stroke-width="3"/>
<path d="M129.602 99.8707C129.602 105.625 124.939 110.288 119.188 110.288C113.436 110.288 108.773 105.625 108.773 99.8707C108.773 94.1168 113.436 89.4531 119.188 89.4531C124.939 89.4531 129.602 94.1168 129.602 99.8707Z" stroke="black" stroke-width="3"/>
<path d="M100.922 99.8707C100.922 105.625 96.2593 110.288 90.5081 110.288C84.7568 110.288 80.0938 105.625 80.0938 99.8707C80.0938 94.1168 84.7568 89.4531 90.5081 89.4531C96.2593 89.4531 100.922 94.1168 100.922 99.8707Z" stroke="black" stroke-width="3"/>
<path d="M93.1209 99.6474C93.268 98.4706 93.0327 96.1172 90.9146 96.1172C88.7965 96.1172 87.9733 98.4706 87.8265 99.6474" stroke="black" stroke-width="3"/>
<path d="M116.574 99.8661C116.427 98.6894 116.663 96.3359 118.781 96.3359C120.899 96.3359 121.722 98.6894 121.869 99.8661" stroke="black" stroke-width="3"/>
<path d="M75.6113 105.787C77.0036 104.281 77.972 102.835 78.5984 101.46C82.0149 93.9607 77.7181 78.721 73.7626 71.4916C72.0683 68.3951 66.6036 67.6791 70.1333 67.6791H72.7519C80.7633 67.6791 81.873 52.8641 86.5064 54.6296C86.9926 54.8149 87.5079 55.1144 88.0488 55.4962C96.5261 61.4799 111.873 63.4575 122.249 63.4575C124.456 63.4575 122.47 71.8439 131.075 72.2853C139.662 72.7258 136.164 83.0574 132.807 92.9717L132.786 93.0325C129.761 99.6024 129.988 119.514 141.003 119.514C147.105 119.514 166.034 115.001 170.348 110.686C172.5 108.534 173.705 106.133 174.324 103.806C176.02 97.4246 177.149 90.1475 180.812 84.6538C182.556 82.0386 183.701 79.6391 184.371 77.4504C187.255 68.0319 182.995 48.1908 175.209 42.1572C170.691 38.6556 167.827 33.6254 164.1 29.2908C159.701 24.1744 151.698 20.6953 143.897 18.514C136.004 16.3068 128.158 8.16235 120.009 7.27524C119.035 7.16914 118.043 7.11903 117.062 7.10951C112.487 7.0651 108.05 5.59837 103.898 3.67679C97.91 0.905437 92.6587 1.93098 88.6737 4.13915C84.5566 6.42052 80.23 8.63997 75.5776 9.35484C71.056 10.0496 67.6743 11.3921 65.1599 13.0938C57.6845 18.1528 46.9957 27.0371 41.2062 33.9623C34.3483 42.1656 23.5204 53.8134 24.6043 64.4506C24.9722 68.0612 26.3591 72.0827 28.1974 75.9748C31.5606 83.0957 29.7502 92.1073 30.1629 99.9717C30.5236 106.847 35.3389 113.05 39.7317 115.542C45.3007 117.791 49.999 116.878 53.7892 114.781C59.4859 111.63 68.7971 110.217 74.3703 106.852C74.9164 106.523 75.1782 106.256 75.6113 105.787Z" fill="#D9D9D9" stroke="black" stroke-width="3"/>
<line x1="101.719" y1="98.5859" x2="107.472" y2="98.5859" stroke="black" stroke-width="3"/>
<path d="M63.3359 429.711L69.955 445.16M99.9614 429.711L98.417 446.263M121.142 429.711L123.349 446.263M152.693 429.711L148.501 445.16" stroke="black" stroke-width="2"/>
<path d="M157.972 447.306C145.778 434.048 126.657 442.323 119.901 449.857C119.553 450.244 119.251 450.661 119.001 451.117C118.013 452.921 115.63 458.146 117.31 464.052C119.396 471.38 127.528 470.123 135.035 477.66C141.828 484.48 154.829 484.672 160.587 483.354C161.641 483.112 162.688 482.827 163.734 482.549C169.723 480.961 176.739 475.921 176.739 468.239C176.739 459.865 170.486 460.912 157.972 447.306Z" fill="#A1C6FF" stroke="black" stroke-width="3"/>
<path d="M64.012 447.306C76.2067 434.048 95.3272 442.323 102.084 449.857C102.431 450.244 102.733 450.661 102.983 451.117C103.971 452.921 106.355 458.146 104.674 464.052C102.589 471.38 94.4563 470.123 86.9495 477.66C80.1561 484.48 67.1558 484.672 61.3978 483.354C60.3431 483.112 59.2966 482.827 58.2507 482.549C52.2616 480.961 45.245 475.921 45.245 468.239C45.245 459.865 51.498 460.912 64.012 447.306Z" fill="#A1C6FF" stroke="black" stroke-width="3"/>
<path d="M59.1758 116.762C34.6541 134.08 19.4614 164.536 15.49 172.923C11.5185 181.309 4.23757 194.11 2.69312 209.117C1.14868 224.125 2.25167 236.704 5.34075 243.987C8.42983 251.27 25.639 264.291 36.671 266.94C39.7188 267.671 45.8392 268.309 53.1874 268.762M59.1758 116.762C58.661 121.249 54.9839 133.418 59.1758 141.143C63.3677 148.867 72.3255 151.736 79.9154 151.736C80.5555 151.736 81.2358 151.701 81.948 151.632C85.7787 151.263 130.785 150.412 134.633 150.412V150.412C144.047 150.853 158.903 143.967 158.903 126.135V126.135C158.903 124.165 162.787 121.233 164.316 122.475C175.279 131.381 187.274 141.548 193.322 151.736C201.707 165.861 206.97 190.033 209.208 197.641C211.446 205.249 216.016 214.077 210.059 230.746C204.102 247.414 192.157 256.021 180.494 260.656M59.1758 116.762L71.9415 109.258M25.8286 228.434C36.671 224.462 49.6573 182.971 74.8097 182.971M180.494 260.656C168.832 265.291 142.955 256.341 142.324 253.135M180.494 260.656C180.494 260.656 168.8 267.379 158.651 268.762C148.909 270.091 106.231 268.869 102.826 268.769C102.665 268.764 102.532 268.762 102.372 268.763C90.2394 268.778 72.3116 269.943 53.1874 268.762M173.213 204.158C164.094 207.1 151.15 211.22 144.31 222.034M25.8286 262.309C17.8858 313.658 7.3706 416.396 15.49 424.518C23.6094 432.639 200.824 433.345 207.884 419.662C214.944 405.979 204.543 278.632 193.953 253.135M53.1874 268.762C66.1314 255.761 91.578 220.268 92.9018 209.117C94.2256 197.966 92.9018 194.005 92.9018 194.005" stroke="black" stroke-width="3"/>
<path d="M112.275 174.53C110.347 176.512 96.9899 190.859 92.7744 190.369C88.559 189.879 78.518 183.178 76.7488 181.309C74.9797 179.44 78.0436 149.268 89.1097 143.901C100.176 138.535 105.891 140.681 110.35 146.857C114.809 153.034 109.168 166.789 108.209 168.583C107.25 170.378 109.961 165.997 113.722 167.313C117.484 168.628 114.202 172.548 112.275 174.53Z" fill="#FFF4DE"/>
<path d="M106.311 151.555L100.089 166.239M101.501 147.767L94.2584 164.859M95.0564 148.049L89.1581 161.413M101.501 170.171C99.0626 169.803 92.7744 171.715 92.7744 177.012M92.7744 190.369C96.9899 190.859 110.347 176.512 112.275 174.53C114.202 172.548 117.484 168.628 113.722 167.313C109.961 165.997 107.25 170.378 108.209 168.583C109.168 166.789 114.809 153.034 110.35 146.857C105.891 140.681 100.176 138.535 89.1097 143.901C78.0436 149.268 74.9797 179.44 76.7488 181.309C78.518 183.178 88.559 189.879 92.7744 190.369Z" stroke="black" stroke-width="3"/>
</svg>
