<svg width="24" height="24" viewBox="0 0 24 24" fill="none" xmlns="http://www.w3.org/2000/svg">
<path d="M17.1554 2.00003C14.9579 1.9927 12.9523 3.25006 12.0013 5.23111C11.0485 3.25053 9.04245 1.9936 6.8446 2.00003C3.63374 2.04076 1.04073 4.63377 1 7.84464C1 15.6018 11.9987 21.2979 11.9987 21.2979C11.9987 21.2979 23 15.3856 23 7.84464C22.9593 4.63377 20.3663 2.04076 17.1554 2.00003Z" fill="#5E9AF4"/>
<path d="M15.0099 7.16408C13.7281 7.15981 12.5581 7.89327 12.0034 9.04888C11.4475 7.89354 10.2774 7.16033 8.99529 7.16408C7.12229 7.18784 5.6097 8.70043 5.58594 10.5734C5.58594 15.0985 12.0018 18.4212 12.0018 18.4212C12.0018 18.4212 18.4193 14.9723 18.4193 10.5734C18.3955 8.70043 16.8829 7.18784 15.0099 7.16408Z" fill="#E0EBFD"/>
</svg>
