<svg width="166" height="36" viewBox="0 0 166 36" fill="none" xmlns="http://www.w3.org/2000/svg">
<path d="M0 30.4599V6.06467H20.9102V30.4599H17.742V9.23289H3.16821V30.4599H0Z" fill="#333333"/>
<path d="M52.9086 30.4599V6.06467H57.3368L65.6607 27.3819L73.9845 6.06483H78.4127V30.4601H75.2497V9.78817L67.3013 30.1439L67.3002 30.1435V30.1437H64.0211V30.1433L64.02 30.1438L56.0716 9.78802V30.4599H52.9086Z" fill="#333333"/>
<path d="M123.876 6.06467H127.045V27.4501H136.866V6.06467H140.034V27.4501H143.203V35.5291H140.034V30.4599H110.887V6.06467H114.055V27.4501H123.876V6.06467Z" fill="#333333"/>
<path fill-rule="evenodd" clip-rule="evenodd" d="M36.9976 30.7772C43.9528 30.7772 49.5912 25.1388 49.5912 18.1835C49.5912 11.2282 43.9528 5.58987 36.9976 5.58987C30.0423 5.58987 24.4039 11.2282 24.4039 18.1835C24.4039 25.1388 30.0423 30.7772 36.9976 30.7772ZM37.0872 28.2405C42.424 28.2405 46.7503 23.7015 46.7503 18.1023C46.7503 12.503 42.424 7.96397 37.0872 7.96397C31.7505 7.96397 27.4242 12.503 27.4242 18.1023C27.4242 23.7015 31.7505 28.2405 37.0872 28.2405Z" fill="#333333"/>
<path fill-rule="evenodd" clip-rule="evenodd" d="M94.6308 30.9367C101.674 30.9367 107.383 25.2274 107.383 18.1847C107.383 11.1419 101.674 5.4326 94.6308 5.4326C87.588 5.4326 81.8787 11.1419 81.8787 18.1847C81.8787 25.2274 87.588 30.9367 94.6308 30.9367ZM94.7122 28.3705C100.116 28.3705 104.497 23.7743 104.497 18.1046C104.497 12.435 100.116 7.83884 94.7122 7.83884C89.3083 7.83884 84.9276 12.435 84.9276 18.1046C84.9276 23.7743 89.3083 28.3705 94.7122 28.3705Z" fill="#333333"/>
<path d="M82.6629 6.85168C85.1025 4.68324 89.6293 3.22662 94.8106 3.22662C99.8418 3.22662 104.256 4.60003 106.741 6.66495V3.88284C104.276 1.76917 99.8087 0.356766 94.7067 0.356766C89.5981 0.356766 85.1257 1.77278 82.6629 3.89093V6.85168Z" fill="#333333"/>
<path d="M82.6629 29.5029C85.1025 31.6713 89.6293 33.128 94.8106 33.128C99.8418 33.128 104.256 31.7546 106.741 29.6896V32.4717C104.276 34.5854 99.8087 35.9978 94.7067 35.9978C89.5981 35.9978 85.1257 34.5818 82.6629 32.4637V29.5029Z" fill="#333333"/>
<path fill-rule="evenodd" clip-rule="evenodd" d="M146.359 6.05973L149.527 6.05972V15.9926L159.924 15.9926C162.754 15.9926 165.997 18.3365 165.997 22.906C165.997 27.4754 163.316 29.9782 159.924 30.455H146.359V6.05973ZM149.536 19.2048V27.4421H159.181C160.737 27.2045 162.526 25.8698 162.526 23.2442C162.526 20.5512 160.426 19.2048 159.181 19.2048H149.536Z" fill="#333333"/>
</svg>
