<svg width="24" height="24" viewBox="0 0 24 24" fill="none" xmlns="http://www.w3.org/2000/svg">
<path fill-rule="evenodd" clip-rule="evenodd" d="M13 2V3.97137C14.4124 4.10187 15.5886 4.5177 16.5407 5.20645C17.7093 6.05174 18.4444 7.2386 18.8939 8.57038C19.6722 10.8762 19.6454 13.787 19.4476 16.6094H22V18.6094H2V16.6094H4.55537C4.37985 13.7585 4.46782 10.8526 5.30973 8.54715C5.79194 7.22667 6.53904 6.05302 7.66939 5.21379C8.58227 4.53603 9.69085 4.11678 11 3.97797V2H13ZM6.55948 16.6094C6.37929 13.7976 6.47727 11.1805 7.18838 9.2332C7.57458 8.17563 8.12354 7.36757 8.86161 6.8196C9.59336 6.27632 10.5941 5.92676 11.9991 5.92676C13.5536 5.92676 14.6196 6.28521 15.3686 6.82695C16.1177 7.36884 16.6458 8.1637 16.9989 9.20997C17.6557 11.156 17.6458 13.7672 17.4422 16.6094H6.55948Z" fill="#333333"/>
<path d="M8.84131 20.5365C8.06395 21.1656 8.06446 21.1662 8.06446 21.1662L8.06618 21.1683L8.06888 21.1716L8.07565 21.1798L8.09472 21.2024C8.10987 21.2202 8.12993 21.2432 8.1548 21.2706C8.2045 21.3255 8.27379 21.3987 8.36199 21.484C8.53767 21.6539 8.79255 21.8759 9.12119 22.0974C9.77609 22.5389 10.7577 22.9999 11.9992 22.9999C13.2408 22.9999 14.2223 22.5389 14.8772 22.0974C15.2059 21.8759 15.4607 21.6539 15.6364 21.484C15.7246 21.3987 15.7939 21.3255 15.8436 21.2706C15.8685 21.2432 15.8885 21.2202 15.9037 21.2024L15.9228 21.1798L15.9295 21.1716L15.9322 21.1683L15.934 21.1662C15.934 21.1662 15.9345 21.1656 15.1571 20.5365C14.3797 19.9075 14.3807 19.9063 14.3807 19.9063L14.3815 19.9052L14.3829 19.9035C14.3798 19.9072 14.3725 19.9156 14.3611 19.9282C14.3383 19.9533 14.2997 19.9945 14.246 20.0464C14.138 20.1508 13.9735 20.2947 13.7593 20.439C13.3287 20.7293 12.7313 20.9999 11.9992 20.9999C11.2671 20.9999 10.6697 20.7293 10.2391 20.439C10.0249 20.2947 9.86041 20.1508 9.75238 20.0464C9.69872 19.9945 9.66008 19.9533 9.6373 19.9282C9.62594 19.9156 9.61864 19.9072 9.61548 19.9035L9.61687 19.9052L9.61819 19.9069C9.61819 19.9069 9.61868 19.9075 8.84131 20.5365Z" fill="#333333"/>
</svg>
