<svg width="24" height="24" viewBox="0 0 24 24" fill="none" xmlns="http://www.w3.org/2000/svg">
<path fill-rule="evenodd" clip-rule="evenodd" d="M16.999 7.94954C16.999 10.6831 14.7578 12.8991 11.9931 12.8991C9.22837 12.8991 6.98714 10.6831 6.98714 7.94954C6.98714 5.21599 9.22837 3 11.9931 3C14.7578 3 16.999 5.21599 16.999 7.94954ZM14.9966 7.94954C14.9966 9.58968 13.6519 10.9193 11.9931 10.9193C10.3342 10.9193 8.98951 9.58968 8.98951 7.94954C8.98951 6.30941 10.3342 4.97982 11.9931 4.97982C13.6519 4.97982 14.9966 6.30941 14.9966 7.94954Z" fill="#333333"/>
<path d="M4.96837 21C5.15304 20.0218 5.66872 18.7377 6.73433 17.7081C7.77747 16.7003 9.41567 15.8688 11.9937 15.8688C17.072 15.8688 18.8366 19.1127 19.0063 20.9103L21 20.7264C20.7425 17.9988 18.1927 13.889 11.9937 13.889C8.93298 13.889 6.78004 14.8959 5.33489 16.2921C3.91222 17.6666 3.2425 19.3522 3 20.6367L4.96837 21Z" fill="#333333"/>
</svg>
