<svg width="24" height="24" viewBox="0 0 24 24" fill="none" xmlns="http://www.w3.org/2000/svg">
<circle cx="12" cy="12" r="9" stroke="#D9D9D9" stroke-width="2"/>
<path d="M12.9307 14.0674H11.4062C11.4108 13.6436 11.4473 13.2881 11.5156 13.001C11.584 12.7093 11.6979 12.445 11.8574 12.208C12.0215 11.971 12.238 11.7204 12.5068 11.4561C12.7165 11.2555 12.9056 11.0664 13.0742 10.8887C13.2428 10.7064 13.3773 10.515 13.4775 10.3145C13.5778 10.1094 13.6279 9.87467 13.6279 9.61035C13.6279 9.32324 13.5801 9.07943 13.4844 8.87891C13.3887 8.67839 13.2474 8.52572 13.0605 8.4209C12.8783 8.31608 12.6504 8.26367 12.377 8.26367C12.1491 8.26367 11.9349 8.30924 11.7344 8.40039C11.5339 8.48698 11.3721 8.6237 11.249 8.81055C11.126 8.99284 11.0599 9.23438 11.0508 9.53516H9.40332C9.41243 8.96094 9.54915 8.47786 9.81348 8.08594C10.0778 7.69401 10.4333 7.40007 10.8799 7.2041C11.3265 7.00814 11.8255 6.91016 12.377 6.91016C12.9876 6.91016 13.5094 7.01497 13.9424 7.22461C14.3753 7.42969 14.7057 7.73047 14.9336 8.12695C15.166 8.51888 15.2822 8.99284 15.2822 9.54883C15.2822 9.94987 15.2025 10.3145 15.043 10.6426C14.8835 10.9661 14.6761 11.2692 14.4209 11.5518C14.1657 11.8298 13.89 12.1077 13.5938 12.3857C13.3385 12.6182 13.1654 12.8711 13.0742 13.1445C12.9831 13.4134 12.9352 13.721 12.9307 14.0674ZM11.2695 16.2002C11.2695 15.9541 11.3538 15.7467 11.5225 15.5781C11.6911 15.4049 11.9212 15.3184 12.2129 15.3184C12.5046 15.3184 12.7347 15.4049 12.9033 15.5781C13.0719 15.7467 13.1562 15.9541 13.1562 16.2002C13.1562 16.4463 13.0719 16.6559 12.9033 16.8291C12.7347 16.9977 12.5046 17.082 12.2129 17.082C11.9212 17.082 11.6911 16.9977 11.5225 16.8291C11.3538 16.6559 11.2695 16.4463 11.2695 16.2002Z" fill="#D9D9D9"/>
</svg>
