<svg width="44" height="44" viewBox="0 0 44 44" fill="none" xmlns="http://www.w3.org/2000/svg">
<rect width="44" height="44" rx="8" fill="#FFF22D"/>
<path fill-rule="evenodd" clip-rule="evenodd" d="M38 15.025L36.6734 13.8106L31.2506 19.0729L29.7513 17.5116L29.8089 14.1575L28.4823 15.545V19.7089L26.3316 21.8724L37.0384 32.6046L32.7113 37L22.0003 26.2277L11.2901 37L6.96362 32.6046L17.6698 21.8724L15.5184 19.7089V15.545L14.1918 14.1575L14.2494 17.5116L12.7494 19.0729L7.32659 13.8106L6 15.025C6.21602 9.36498 10.7064 4.97501 14.9414 7.96999L20.4794 13.5798L19.2097 14.7359L21.999 17.5319L24.7883 14.7359L23.5192 13.5798L29.0572 7.96999C33.2936 4.97433 37.784 9.36498 38 15.025Z" fill="black"/>
</svg>
