<svg width="201" height="101" viewBox="0 0 201 101" fill="none" xmlns="http://www.w3.org/2000/svg">
<path d="M175.813 28.8298V53.5226H167.048V36.2011H158.609V53.5226H149.844V28.8281H175.813V28.8298Z" fill="black"/>
<path fill-rule="evenodd" clip-rule="evenodd" d="M131.847 54.4018C139.694 54.4018 145.521 49.5622 145.521 42.2262C145.521 35.1251 141.222 30.5144 134.037 30.5144C130.722 30.5144 127.986 31.6886 125.925 33.7145C126.417 29.5272 129.937 26.4702 133.812 26.4702C134.707 26.4702 141.44 26.4559 141.44 26.4559L145.247 19.125C145.247 19.125 136.794 19.3186 132.864 19.3186C123.885 19.4768 117.82 27.6873 117.82 37.6585C117.82 49.2769 123.736 54.4026 131.848 54.4026L131.847 54.4018ZM131.896 37.0071C134.809 37.0071 136.829 38.9328 136.829 42.2254C136.829 45.1881 135.034 47.6306 131.896 47.6373C128.894 47.6373 126.874 45.3749 126.874 42.2759C126.874 38.9824 128.894 37.0071 131.896 37.0071Z" fill="black"/>
<path d="M110.685 45.2586C110.685 45.2586 108.615 46.4588 105.523 46.686C101.97 46.7921 98.803 44.5339 98.803 40.5217C98.803 36.6079 101.597 34.3649 105.434 34.3649C107.787 34.3649 110.9 36.0053 110.9 36.0053C110.9 36.0053 113.177 31.8012 114.357 29.6987C112.196 28.0515 109.319 27.1484 105.972 27.1484C97.5263 27.1484 90.9844 32.6883 90.9844 40.472C90.9844 48.3551 97.133 53.7661 105.972 53.602C108.443 53.5094 111.852 52.6375 113.929 51.295L110.685 45.2586Z" fill="black"/>
<path d="M2.90625 21.9844L15.0647 43.8467V57.182L2.92047 79.0014L2.90625 21.9844Z" fill="#5B57A2"/>
<path d="M49.5859 35.8902L60.9788 28.8656L84.295 28.8438L49.5859 50.2339V35.8902Z" fill="#D90751"/>
<path d="M49.5209 21.8556L49.5853 50.8005L37.3984 43.2676V0L49.5209 21.8556Z" fill="#FAB718"/>
<path d="M84.2944 28.8448L60.9774 28.8666L49.5209 21.8556L37.3984 0L84.2944 28.8448Z" fill="#ED6F26"/>
<path d="M49.5853 79.1205V65.0773L37.3984 57.6875L37.4051 100.998L49.5853 79.1205Z" fill="#63B22F"/>
<path d="M60.9542 72.162L15.0639 43.8467L2.90625 21.9844L84.2495 72.1334L60.9542 72.162Z" fill="#1487C9"/>
<path d="M37.4062 100.999L49.5848 79.122L60.9492 72.1614L84.2445 72.1328L37.4062 100.999Z" fill="#017F36"/>
<path d="M2.92188 79.0027L37.5038 57.6917L25.8775 50.5156L15.0661 57.1833L2.92188 79.0027Z" fill="#984995"/>
<path d="M98.8056 70.1492C98.5379 70.4926 98.1856 70.7519 97.7631 70.9269C97.3296 71.1045 96.8657 71.1948 96.3977 71.1929C95.9322 71.1992 95.4694 71.1211 95.0314 70.9623C94.6381 70.8185 94.2785 70.5945 93.9755 70.3041C93.6763 70.0132 93.4414 69.6622 93.2861 69.2739C93.1179 68.8483 93.034 68.3936 93.0393 67.9356C93.0393 67.4811 93.1171 67.0603 93.2786 66.6622C93.4264 66.2769 93.6514 65.9262 93.9396 65.632C94.2268 65.3398 94.5663 65.1048 94.9402 64.9393C95.3276 64.771 95.7501 64.6801 96.2145 64.6801C96.7148 64.6801 97.1791 64.7432 97.6016 64.8686C98.0242 64.9949 98.3831 65.2053 98.6784 65.4999L98.1647 66.3752C97.9163 66.1487 97.6236 65.9767 97.3055 65.8702C97.0027 65.7721 96.6865 65.7226 96.3684 65.7237C96.0881 65.7237 95.8204 65.7793 95.5602 65.8836C95.3037 65.9878 95.0694 66.1404 94.8699 66.3331C94.666 66.531 94.5053 66.7695 94.398 67.0334C94.2767 67.3206 94.2168 67.6303 94.2223 67.9424C94.2223 68.2866 94.2851 68.5947 94.4047 68.8598C94.5252 69.1342 94.6867 69.3648 94.89 69.5609C95.095 69.7578 95.3334 69.9043 95.6087 70.0028C95.888 70.1077 96.1841 70.1599 96.4822 70.1568C96.862 70.1568 97.2076 70.0794 97.5029 69.9321C97.7956 69.7899 98.0585 69.5928 98.2777 69.3513L98.8056 70.1492ZM100.256 71.0456V64.8131H101.368V69.4565L104.987 64.8131H106.1V71.0464H104.987V66.403L101.368 71.0464L100.256 71.0456ZM113.471 70.1492C113.197 70.4955 112.838 70.7636 112.429 70.9269C111.995 71.1044 111.531 71.1947 111.063 71.1929C110.598 71.1992 110.135 71.121 109.697 70.9623C109.304 70.8186 108.944 70.5945 108.641 70.3041C108.341 70.0132 108.107 69.6622 107.951 69.2739C107.783 68.8483 107.699 68.3936 107.704 67.9356C107.704 67.4811 107.782 67.0603 107.944 66.6622C108.099 66.2624 108.324 65.9198 108.605 65.632C108.892 65.3398 109.231 65.1048 109.605 64.9393C110.007 64.7616 110.441 64.6731 110.88 64.6801C111.38 64.6801 111.844 64.7432 112.267 64.8686C112.689 64.9949 113.048 65.2053 113.344 65.4999L112.83 66.3752C112.582 66.1485 112.289 65.9765 111.971 65.8702C111.669 65.7721 111.352 65.7227 111.034 65.7237C110.475 65.7258 109.939 65.9439 109.535 66.3331C109.333 66.5325 109.172 66.7706 109.063 67.0334C108.942 67.3206 108.882 67.6303 108.887 67.9424C108.887 68.2866 108.951 68.5947 109.071 68.8598C109.19 69.1342 109.352 69.3648 109.556 69.5609C109.76 69.7578 109.999 69.9043 110.275 70.0028C110.549 70.1004 110.838 70.1568 111.147 70.1568C111.528 70.1568 111.866 70.0794 112.168 69.9321C112.461 69.7899 112.724 69.5928 112.943 69.3513L113.471 70.1492ZM114.041 64.8131H119.751V65.9198H117.456V71.0456H116.343V65.9198H114.048V64.8131H114.041Z" fill="black"/>
<path fill-rule="evenodd" clip-rule="evenodd" d="M124.947 70.9819C125.369 70.8489 125.728 70.6452 126.038 70.3658L125.7 69.4972C125.496 69.6798 125.221 69.8339 124.891 69.9601C124.559 70.0864 124.186 70.1486 123.778 70.1486C123.165 70.1486 122.658 69.9879 122.257 69.6588C121.855 69.3289 121.638 68.8676 121.587 68.2785H126.404C126.455 68.0322 126.479 67.7809 126.474 67.5294C126.48 67.1297 126.4 66.7335 126.242 66.367C126.098 66.027 125.887 65.7196 125.623 65.4631C125.355 65.209 125.039 65.0115 124.693 64.8823C124.332 64.7413 123.947 64.6699 123.56 64.6719C123.038 64.6719 122.581 64.7628 122.179 64.9312C121.8 65.0916 121.458 65.3275 121.173 65.6247C120.895 65.9203 120.682 66.2709 120.547 66.654C120.398 67.062 120.324 67.4938 120.328 67.9283C120.328 68.419 120.412 68.8668 120.568 69.2666C120.718 69.6539 120.949 70.0047 121.244 70.2959C121.532 70.5821 121.884 70.8001 122.299 70.9541C122.745 71.1129 123.214 71.191 123.687 71.1847C124.114 71.1821 124.539 71.1131 124.947 70.9819ZM122.13 66.1844C122.475 65.8696 122.933 65.7156 123.51 65.7156C124.052 65.7156 124.489 65.8629 124.806 66.1575C125.123 66.4512 125.291 66.8577 125.32 67.3753H121.518C121.572 66.917 121.79 66.4932 122.13 66.1844Z" fill="black"/>
<path d="M127.992 64.8125H129.006L131.414 67.9014L133.695 64.8125H134.681V71.0459H133.568V66.5009L131.4 69.3928H131.357L129.105 66.5V71.045H127.992V64.8125Z" fill="black"/>
<path fill-rule="evenodd" clip-rule="evenodd" d="M137.7 64.8307C137.363 64.9195 137.041 65.0585 136.744 65.2431L137.039 66.1269C137.293 66.0006 137.546 65.8954 137.8 65.8045C138.053 65.7119 138.377 65.6698 138.765 65.6698C139.074 65.6698 139.321 65.7204 139.511 65.818C139.701 65.9089 139.841 66.0494 139.94 66.2178C140.039 66.3861 140.102 66.5957 140.138 66.8406C140.173 67.0855 140.187 67.3515 140.187 67.6394C139.959 67.4796 139.699 67.3719 139.426 67.3237C139.162 67.2709 138.893 67.2428 138.624 67.2396C138.293 67.2396 137.983 67.2892 137.687 67.3725C137.392 67.4567 137.138 67.583 136.934 67.7513C136.725 67.9192 136.557 68.1321 136.44 68.3741C136.317 68.6391 136.254 68.9289 136.258 69.2217C136.258 69.831 136.434 70.3074 136.785 70.6441C137.138 70.9799 137.602 71.1474 138.18 71.1474C138.701 71.1474 139.117 71.0565 139.433 70.8747C139.75 70.6921 140.004 70.4825 140.186 70.2435V71.0498H141.229V67.2261C141.229 66.413 141.053 65.7835 140.693 65.3408C140.342 64.9006 139.714 64.6758 138.827 64.6758C138.433 64.6758 138.059 64.7322 137.7 64.8307ZM139.561 69.8807C139.308 70.0625 138.975 70.1458 138.568 70.1458C138.208 70.1458 137.927 70.0549 137.73 69.8799C137.533 69.6981 137.434 69.459 137.434 69.1644C137.434 68.9911 137.469 68.8438 137.547 68.7099C137.625 68.5761 137.731 68.4726 137.85 68.3884C137.981 68.3004 138.126 68.2363 138.279 68.1991C138.442 68.157 138.603 68.1359 138.772 68.1359C139.322 68.1359 139.793 68.2689 140.18 68.5484V69.3395C139.998 69.5456 139.79 69.728 139.561 69.8807ZM151.051 62.6171C151.276 62.5128 151.486 62.3377 151.684 62.0785L151.079 61.2031C150.924 61.4135 150.748 61.56 150.551 61.6374C150.341 61.7197 150.125 61.7806 149.903 61.8192L149.692 61.8571C149.508 61.8891 149.312 61.9244 149.101 61.9598C148.761 62.023 148.43 62.1264 148.115 62.2678C147.615 62.485 147.214 62.7787 146.91 63.1499C146.607 63.5211 146.369 63.9411 146.207 64.404C146.042 64.8729 145.931 65.3592 145.876 65.8533C145.819 66.3583 145.792 66.8406 145.792 67.3027C145.792 67.8986 145.869 68.4372 146.024 68.9204C146.179 69.4043 146.397 69.81 146.685 70.1391C146.974 70.4758 147.32 70.7283 147.728 70.9101C148.136 71.0919 148.594 71.1828 149.107 71.1828C149.579 71.1828 150.016 71.0919 150.41 70.9235C150.79 70.7618 151.135 70.5264 151.424 70.2308C151.705 69.943 151.931 69.5996 152.085 69.215C152.247 68.8243 152.328 68.405 152.325 67.9819C152.325 67.5131 152.255 67.0864 152.121 66.7076C151.998 66.3465 151.801 66.0152 151.544 65.7347C151.286 65.4588 150.971 65.2433 150.621 65.1034C150.236 64.9507 149.825 64.8747 149.41 64.8795C149.143 64.8795 148.882 64.9149 148.629 64.9847C148.382 65.0547 148.146 65.1559 147.924 65.2861C147.71 65.4097 147.513 65.5626 147.34 65.7405C147.171 65.9165 147.031 66.1126 146.932 66.3364H146.904C146.924 66.0401 146.964 65.7455 147.023 65.4544C147.087 65.1531 147.178 64.8652 147.299 64.5925C147.418 64.3198 147.573 64.0741 147.763 63.8502C147.967 63.6242 148.216 63.445 148.495 63.325C148.802 63.1781 149.126 63.0723 149.46 63.0102L149.681 62.9698C149.901 62.9294 150.111 62.8907 150.311 62.8486C150.579 62.793 150.825 62.7215 151.051 62.6171ZM147.135 68.6056C147.027 68.2519 146.975 67.8832 146.982 67.5131C147.029 67.3007 147.115 67.0989 147.235 66.918C147.359 66.7256 147.514 66.5549 147.693 66.413C148.106 66.0872 148.617 65.9121 149.143 65.9165C149.798 65.9165 150.291 66.1185 150.635 66.5191C150.981 66.9248 151.15 67.4281 151.15 68.0383C151.15 68.3396 151.093 68.6132 150.995 68.8648C150.9 69.1131 150.756 69.3397 150.572 69.531C150.388 69.7222 150.168 69.8744 149.924 69.9783C149.671 70.0903 149.396 70.1467 149.087 70.1467C148.777 70.1467 148.495 70.0835 148.235 69.9573C147.976 69.8336 147.748 69.6543 147.566 69.4321C147.375 69.1845 147.229 68.9046 147.136 68.6056H147.135ZM160.858 64.8097H159.746V71.0431H160.858V64.8097ZM153.93 64.8097H155.043V66.6799H156.071C156.556 66.6799 156.95 66.743 157.267 66.8616C157.585 66.9812 157.838 67.1419 158.028 67.338C158.218 67.5341 158.352 67.7656 158.43 68.024C158.507 68.2832 158.549 68.5492 158.549 68.8295C158.549 69.1097 158.507 69.3765 158.415 69.6425C158.331 69.9085 158.183 70.1391 157.985 70.3495C157.789 70.5599 157.521 70.7283 157.182 70.8545C156.845 70.9799 156.437 71.0498 155.944 71.0498H153.923V64.8097H153.93ZM155.043 67.7218V70.0061H155.853C156.409 70.0061 156.803 69.9085 157.028 69.7115C157.254 69.5154 157.366 69.236 157.366 68.8648C157.366 68.4861 157.247 68.1999 157.022 68.003C156.789 67.8068 156.402 67.7084 155.867 67.7084H155.043V67.7218Z" fill="black"/>
<path d="M168.22 70.1492C167.952 70.4926 167.6 70.7519 167.177 70.9269C166.744 71.1044 166.28 71.1947 165.812 71.1929C165.346 71.1992 164.883 71.1211 164.445 70.9623C164.052 70.8188 163.692 70.5947 163.39 70.3041C163.09 70.0131 162.855 69.6621 162.699 69.2739C162.532 68.8481 162.448 68.3936 162.453 67.9356C162.453 67.4811 162.53 67.0603 162.693 66.6622C162.84 66.2769 163.065 65.9262 163.354 65.632C163.636 65.3374 163.973 65.1144 164.354 64.9393C164.755 64.7615 165.19 64.6731 165.628 64.6801C166.128 64.6801 166.593 64.7432 167.016 64.8686C167.438 64.9949 167.797 65.2053 168.092 65.4999L167.579 66.3752C167.33 66.1487 167.038 65.9767 166.72 65.8702C166.417 65.7721 166.101 65.7227 165.782 65.7237C165.502 65.7237 165.234 65.7793 164.973 65.8837C164.717 65.9878 164.483 66.1404 164.284 66.3331C164.082 66.5323 163.921 66.7704 163.812 67.0334C163.691 67.3206 163.631 67.6303 163.636 67.9424C163.636 68.2866 163.699 68.5947 163.819 68.8598C163.938 69.1342 164.101 69.3648 164.304 69.5609C164.509 69.7579 164.747 69.9043 165.023 70.0028C165.298 70.1004 165.587 70.1568 165.896 70.1568C166.249 70.1613 166.598 70.0845 166.917 69.9321C167.21 69.7899 167.473 69.5928 167.692 69.3513L168.22 70.1492ZM168.789 64.8131H174.5V65.9198H172.204V71.0456H171.091V65.9198H168.797V64.8131H168.789Z" fill="black"/>
<path fill-rule="evenodd" clip-rule="evenodd" d="M176.824 64.8129H175.711V73.8187H176.824V70.7584C177.049 70.9057 177.317 71.0109 177.626 71.0808C177.936 71.1506 178.259 71.1852 178.591 71.1852C179.084 71.1852 179.527 71.0943 179.929 70.9268C180.314 70.761 180.663 70.5208 180.956 70.2198C181.247 69.9142 181.472 69.5514 181.617 69.1542C181.773 68.7418 181.85 68.2999 181.85 67.8311C181.85 67.3682 181.78 66.9415 181.646 66.556C181.52 66.1899 181.324 65.8522 181.069 65.562C180.819 65.2789 180.508 65.0562 180.16 64.9105C179.78 64.7461 179.369 64.6649 178.956 64.6723C178.52 64.6723 178.112 64.7565 177.725 64.9248C177.337 65.0932 177.035 65.2952 176.824 65.5477V64.8129ZM177.598 65.9685C177.916 65.8002 178.259 65.716 178.633 65.716C178.957 65.716 179.246 65.7648 179.507 65.87C179.76 65.9752 179.971 66.1225 180.148 66.3186C180.323 66.5147 180.457 66.7395 180.541 67.0046C180.633 67.2706 180.675 67.5584 180.675 67.8732C180.675 68.2099 180.619 68.5103 180.521 68.7906C180.429 69.0563 180.282 69.2997 180.091 69.5052C179.899 69.7082 179.666 69.8679 179.408 69.974C179.121 70.0951 178.811 70.1548 178.5 70.1491C178.198 70.1491 177.916 70.1146 177.648 70.0447C177.355 69.9645 177.077 69.8365 176.825 69.6659V66.577C177.021 66.3397 177.282 66.1368 177.598 65.9685ZM190.383 64.8121H189.27V71.0454H190.383V64.8121ZM183.448 64.8121H184.561V66.6822H185.589C186.074 66.6822 186.469 66.7454 186.785 66.864C187.103 66.9836 187.357 67.1443 187.546 67.3404C187.736 67.5365 187.87 67.768 187.947 68.0264C188.025 68.2856 188.067 68.5516 188.067 68.8319C188.067 69.1121 188.025 69.3789 187.933 69.6449C187.849 69.9109 187.701 70.1415 187.504 70.3519C187.307 70.5623 187.039 70.7307 186.701 70.8569C186.363 70.9823 185.955 71.0522 185.462 71.0522H183.442V64.8121H183.448ZM184.569 67.7242V70.0085H185.379C185.934 70.0085 186.329 69.9109 186.554 69.7139C186.779 69.5178 186.892 69.2384 186.892 68.8672C186.892 68.4885 186.773 68.2023 186.547 68.0053C186.315 67.8092 185.927 67.7108 185.393 67.7108H184.569V67.7242Z" fill="black"/>
<path d="M195.717 67.8172L198.097 71.0459H196.731L194.893 68.5242L193.027 71.0459H191.732L194.097 67.8728L191.872 64.8125H193.239L194.936 67.1658L196.659 64.8125H197.956L195.717 67.8172ZM97.9803 78.7497H94.5659V83.9461H93.4531V77.7136H99.0923V83.9461H97.9795L97.9803 78.7497ZM105.407 78.8195H103.211L103.14 79.8699C103.063 80.7596 102.958 81.4741 102.81 82.0195C102.661 82.5666 102.478 82.9866 102.267 83.2803C102.057 83.5749 101.81 83.7769 101.528 83.8762C101.237 83.9823 100.929 84.0345 100.62 84.0303L100.536 82.9513C100.679 82.9545 100.821 82.9234 100.95 82.8604C101.106 82.7905 101.26 82.6365 101.408 82.4059C101.556 82.1668 101.69 81.831 101.81 81.3959C101.929 80.9557 102.007 80.3816 102.049 79.6595L102.162 77.7195H106.52V83.9528H105.407V78.8195Z" fill="black"/>
<path fill-rule="evenodd" clip-rule="evenodd" d="M109.522 77.7243C109.162 77.822 108.838 77.9617 108.564 78.1368L108.86 79.0197C109.113 78.8934 109.367 78.7882 109.619 78.6973C109.873 78.6064 110.197 78.5643 110.584 78.5643C110.894 78.5643 111.141 78.6131 111.33 78.7108C111.521 78.8025 111.662 78.9422 111.76 79.1106C111.858 79.2789 111.922 79.4893 111.957 79.7334C111.992 79.9792 112.006 80.2451 112.006 80.5321C111.778 80.3727 111.519 80.2652 111.245 80.2174C110.981 80.1645 110.713 80.1363 110.444 80.1332C110.113 80.1332 109.803 80.182 109.506 80.2662C109.211 80.3503 108.958 80.4766 108.753 80.6449C108.545 80.8129 108.376 81.0257 108.26 81.2678C108.136 81.5328 108.074 81.8226 108.078 82.1153C108.078 82.7238 108.254 83.2011 108.605 83.5369C108.957 83.8727 109.423 84.041 110 84.041C110.521 84.041 110.936 83.9502 111.253 83.7675C111.57 83.5857 111.822 83.3753 112.006 83.1363V83.9426H113.049V80.1189C113.049 79.3067 112.872 78.6763 112.513 78.2352C112.161 77.7934 111.535 77.5703 110.648 77.5703C110.267 77.5706 109.888 77.623 109.522 77.7243ZM111.387 82.7727C111.135 82.9553 110.803 83.0395 110.395 83.0395C110.029 83.0395 109.754 82.9486 109.558 82.7727C109.36 82.5909 109.261 82.3518 109.261 82.0589C109.261 81.8839 109.296 81.7366 109.374 81.6036C109.451 81.4706 109.558 81.3654 109.677 81.2812C109.797 81.1971 109.944 81.1339 110.106 81.0919C110.267 81.05 110.433 81.0291 110.599 81.0296C111.148 81.0296 111.62 81.1626 112.007 81.442V82.2331C111.824 82.4386 111.616 82.6205 111.387 82.7727Z" fill="black"/>
<path d="M114.141 77.7109H119.851V78.8169H117.555V83.9426H116.442V78.8169H114.148V77.7109H114.141Z" fill="black"/>
<path fill-rule="evenodd" clip-rule="evenodd" d="M125.049 83.8794C125.472 83.7464 125.831 83.5427 126.14 83.2633L125.802 82.3947C125.598 82.5773 125.324 82.7314 124.992 82.8576C124.662 82.9839 124.289 83.0462 123.879 83.0462C123.268 83.0462 122.761 82.8854 122.359 82.5563C121.958 82.2272 121.74 81.7651 121.69 81.176H126.507C126.555 80.9597 126.577 80.7131 126.577 80.4269C126.577 80.0002 126.499 79.6147 126.344 79.2645C126.2 78.9246 125.989 78.6175 125.724 78.3614C125.457 78.1068 125.141 77.909 124.796 77.7798C124.434 77.6388 124.05 77.5675 123.662 77.5694C123.141 77.5694 122.683 77.6603 122.281 77.8287C121.903 77.9887 121.56 78.2247 121.275 78.5222C120.997 78.818 120.784 79.1685 120.647 79.5516C120.499 79.9597 120.426 80.3914 120.43 80.8258C120.43 81.3165 120.514 81.7643 120.669 82.1641C120.825 82.563 121.057 82.9064 121.345 83.1934C121.634 83.4804 121.986 83.6976 122.402 83.8516C122.847 84.0107 123.316 84.0891 123.788 84.0831C124.204 84.0831 124.627 84.0124 125.049 83.8794ZM122.226 79.0752C122.571 78.7604 123.029 78.6064 123.606 78.6064C124.156 78.6064 124.585 78.7604 124.902 79.0474C125.218 79.342 125.387 79.7477 125.416 80.2661H121.614C121.667 79.8075 121.885 79.3842 122.226 79.0752ZM127.119 77.71H128.527L130.674 80.7147L128.379 83.9425H127.014L129.421 80.7139L127.119 77.71ZM130.948 77.71H132.061V83.9425H130.948V77.71ZM136.039 83.9425L133.589 80.7139L135.877 77.7091H134.497L132.336 80.7139L134.659 83.9425H136.039ZM141.122 83.8794C141.545 83.7464 141.904 83.5427 142.213 83.2633L141.875 82.3947C141.671 82.5773 141.397 82.7314 141.066 82.8576C140.735 82.9839 140.362 83.0462 139.953 83.0462C139.341 83.0462 138.834 82.8854 138.432 82.5563C138.031 82.2272 137.813 81.7651 137.763 81.176H142.58C142.629 80.9597 142.65 80.7131 142.65 80.4269C142.65 80.0002 142.573 79.6147 142.417 79.2645C142.273 78.9248 142.063 78.6177 141.798 78.3614C141.53 78.1068 141.214 77.909 140.869 77.7798C140.507 77.6388 140.123 77.5674 139.735 77.5694C139.215 77.5694 138.756 77.6603 138.355 77.8287C137.976 77.989 137.634 78.2249 137.349 78.5222C137.071 78.8175 136.857 79.1682 136.721 79.5516C136.573 79.9596 136.499 80.3913 136.504 80.8258C136.504 81.3165 136.588 81.7643 136.743 82.1641C136.898 82.563 137.131 82.9064 137.419 83.1934C137.708 83.4804 138.059 83.6976 138.475 83.8516C138.92 84.0107 139.39 84.0891 139.862 84.0831C140.29 84.0799 140.715 84.0112 141.122 83.8794ZM138.299 79.0752C138.645 78.7604 139.103 78.6064 139.68 78.6064C140.222 78.6064 140.658 78.7604 140.975 79.0474C141.292 79.342 141.46 79.7477 141.489 80.2661H137.687C137.741 79.8075 137.958 79.3842 138.299 79.0752ZM147.164 75.6159C146.509 75.6159 146.15 75.2515 146.093 74.5234H145.045C145.045 74.8029 145.094 75.0554 145.185 75.2936C145.277 75.5318 145.411 75.7346 145.587 75.9029C145.762 76.0713 145.988 76.2042 146.248 76.3086C146.509 76.4138 146.812 76.4626 147.156 76.4626C147.448 76.4684 147.738 76.4161 148.009 76.3086C148.262 76.211 148.473 76.0713 148.656 75.9029C148.836 75.7315 148.977 75.5238 149.071 75.2936C149.17 75.0554 149.22 74.8029 149.22 74.5234H148.178C148.128 75.2515 147.783 75.6159 147.164 75.6159ZM144.157 77.7091V83.9425H145.27L148.888 79.299V83.9425H150.001V77.7091H148.888L145.27 82.3526V77.7091H144.157Z" fill="black"/>
</svg>
