<svg width="24" height="24" viewBox="0 0 24 24" fill="none" xmlns="http://www.w3.org/2000/svg">
<path fill-rule="evenodd" clip-rule="evenodd" d="M10.3969 3.99688C6.86225 3.99688 3.99688 6.86225 3.99688 10.3969C3.99688 13.9315 6.86225 16.7969 10.3969 16.7969C13.9315 16.7969 16.7969 13.9315 16.7969 10.3969C16.7969 6.86225 13.9315 3.99688 10.3969 3.99688ZM0.796875 10.3969C0.796875 5.09494 5.09494 0.796875 10.3969 0.796875C15.6988 0.796875 19.9969 5.09494 19.9969 10.3969C19.9969 15.6988 15.6988 19.9969 10.3969 19.9969C5.09494 19.9969 0.796875 15.6988 0.796875 10.3969Z" fill="#C8CBCC"/>
<path fill-rule="evenodd" clip-rule="evenodd" d="M16.794 14.5312L23.8567 21.594L21.594 23.8567L14.5312 16.794L16.794 14.5312Z" fill="#C8CBCC"/>
</svg>
