<svg width="44" height="44" viewBox="0 0 44 44" fill="none" xmlns="http://www.w3.org/2000/svg">
<rect width="44" height="44" rx="8" fill="#FFDD2D"/>
<path d="M6 6H38V22.0937C38 26.2194 35.7991 30.0318 32.2263 32.0949L22 38L11.7737 32.0949C8.2009 30.0318 6 26.2194 6 22.0937V6Z" fill="white"/>
<path fill-rule="evenodd" clip-rule="evenodd" d="M14.7812 14.4688V19.4742C15.4657 18.7013 16.7102 18.1782 18.1332 18.1782H19.6795V23.997C19.6795 25.5451 19.2589 26.9001 18.6348 27.6454H25.3609C24.7382 26.8993 24.3185 25.546 24.3185 23.9999V18.1782H25.8649C27.2878 18.1782 28.5323 18.7013 29.2168 19.4742V14.4688H14.7812Z" fill="#333333"/>
</svg>
