<svg width="24" height="24" viewBox="0 0 24 24" fill="none" xmlns="http://www.w3.org/2000/svg">
<path fill-rule="evenodd" clip-rule="evenodd" d="M0.335938 12.0026C0.335938 5.55928 5.55928 0.335938 12.0026 0.335938C18.4459 0.335938 23.6693 5.55928 23.6693 12.0026C23.6693 18.4459 18.4459 23.6693 12.0026 23.6693C5.55928 23.6693 0.335938 18.4459 0.335938 12.0026ZM12.0026 2.66927C6.84795 2.66927 2.66927 6.84795 2.66927 12.0026C2.66927 17.1573 6.84795 21.3359 12.0026 21.3359C17.1573 21.3359 21.3359 17.1573 21.3359 12.0026C21.3359 6.84795 17.1573 2.66927 12.0026 2.66927ZM10.8359 8.5026V6.16927H13.1693V8.5026H10.8359ZM12.0026 19.0026C11.3583 19.0026 10.8359 18.4803 10.8359 17.8359V10.8359H13.1693V17.8359C13.1693 18.4803 12.6469 19.0026 12.0026 19.0026Z" fill="#333333"/>
</svg>
