<svg width="24" height="26" viewBox="0 0 24 26" fill="none" xmlns="http://www.w3.org/2000/svg">
<path d="M4 14L14 3L12.3022 10.7112L20 12L10 23L11.6802 15.2767L4 14Z" fill="#F894B1"/>
<path d="M14 3L14.8789 3.19352L13.3341 2.39459L14 3ZM4 14L3.33405 13.3946C3.1124 13.6384 3.04171 13.9839 3.14977 14.2951C3.25783 14.6064 3.52736 14.8338 3.85241 14.8878L4 14ZM11.6802 15.2767L12.5596 15.468C12.612 15.2273 12.5633 14.9755 12.425 14.7716C12.2867 14.5676 12.0708 14.4293 11.8277 14.3889L11.6802 15.2767ZM10 23L9.12057 22.8087L10.6659 23.6054L10 23ZM20 12L20.6659 12.6054C20.8875 12.3617 20.9582 12.0165 20.8504 11.7053C20.7426 11.3942 20.4734 11.1667 20.1486 11.1124L20 12ZM12.3022 10.7112L11.4232 10.5177C11.3702 10.7586 11.4183 11.0107 11.5564 11.215C11.6945 11.4194 11.9103 11.5582 12.1536 11.5989L12.3022 10.7112ZM13.3341 2.39459L3.33405 13.3946L4.66595 14.6054L14.6659 3.60541L13.3341 2.39459ZM3.85241 14.8878L11.5326 16.1645L11.8277 14.3889L4.14759 13.1122L3.85241 14.8878ZM10.8007 15.0854L9.12057 22.8087L10.8794 23.1913L12.5596 15.468L10.8007 15.0854ZM10.6659 23.6054L20.6659 12.6054L19.3341 11.3946L9.33405 22.3946L10.6659 23.6054ZM20.1486 11.1124L12.4508 9.8236L12.1536 11.5989L19.8514 12.8876L20.1486 11.1124ZM13.1811 10.9048L14.8789 3.19352L13.1211 2.80648L11.4232 10.5177L13.1811 10.9048Z" fill="#F894B1"/>
</svg>
