<svg width="15" height="14" viewBox="0 0 15 14" fill="none" xmlns="http://www.w3.org/2000/svg">
<path fill-rule="evenodd" clip-rule="evenodd" d="M2.21053 0C0.989686 0 0 0.989686 0 2.21053V11.7895C0 13.0103 0.989686 14 2.21053 14H12.5263C13.7472 14 14.7368 13.0103 14.7368 11.7895V5.15789C14.7368 3.93705 13.7472 2.94737 12.5263 2.94737H11.7895V2.21053C11.7895 0.989686 10.7998 0 9.57895 0H2.21053ZM1.47368 2.21053C1.47368 2.61747 1.80358 2.94737 2.21053 2.94737H10.3158V2.21053C10.3158 1.80358 9.9859 1.47368 9.57895 1.47368H2.21053C1.80358 1.47368 1.47368 1.80358 1.47368 2.21053ZM10.6842 9.57895C11.2946 9.57895 11.7895 9.0841 11.7895 8.47368C11.7895 7.86326 11.2946 7.36842 10.6842 7.36842C10.0738 7.36842 9.57895 7.86326 9.57895 8.47368C9.57895 9.0841 10.0738 9.57895 10.6842 9.57895Z" fill="#C8CBCC"/>
</svg>
